<svg xmlns="http://www.w3.org/2000/svg" xmlns:xlink="http://www.w3.org/1999/xlink" width="70" height="70" viewBox="0 0 70 70"><defs><path id="a" d="M149 792a35 35 0 1 1 70 0 35 35 0 0 1-70 0z"/><path id="b" d="M205.59 804.56c-4.28-2.08-11.42-4.56-21.09-4.56s-16.81 2.48-21.09 4.56c-3.24 1.57-5.41 5.74-5.41 10.38v10.83c0 .68.41 1.23.91 1.23h51.18c.5 0 .91-.55.91-1.23v-10.83c0-4.64-2.17-8.81-5.41-10.38z"/><path id="c" d="M184.5 801c7.44 0 13.5-6.14 13.5-13.68v-3.64c0-7.54-6.06-13.68-13.5-13.68s-13.5 6.14-13.5 13.68v3.64c0 7.54 6.06 13.68 13.5 13.68z"/></defs><use fill="#c5c5c5" xlink:href="#a" transform="translate(-149 -757)"/><use fill="#fff" xlink:href="#b" transform="translate(-149 -757)"/><use fill="#fff" xlink:href="#c" transform="translate(-149 -757)"/></svg>