<svg xmlns="http://www.w3.org/2000/svg" xmlns:xlink="http://www.w3.org/1999/xlink" width="16" height="16" viewBox="0 0 16 16"><defs><path id="a" d="M1109 102h2v-2h-2zm0 3h2v-2h-2zm3-3h2v-2h-2zm0 3h2v-2h-2zm3-3h2v-2h-2zm0 3h2v-2h-2zm4 1a1 1 0 0 1-1 1h-10a1 1 0 0 1-1-1v-7a1 1 0 0 1 1-1h10a1 1 0 0 1 1 1zm0 3a2 2 0 0 0 2-2V95a2 2 0 0 0-2-2h-2v1a1 1 0 0 1-1 1 1 1 0 0 1-1-1v-1h-4v1a1 1 0 0 1-1 1 1 1 0 0 1-1-1v-1h-2a2 2 0 0 0-2 2v12a2 2 0 0 0 2 2z"/></defs><use fill="#ced0da" xlink:href="#a" transform="translate(-1105 -93)"/></svg>