<svg xmlns="http://www.w3.org/2000/svg" xmlns:xlink="http://www.w3.org/1999/xlink" width="36" height="36" viewBox="0 0 36 36"><defs><path id="a" d="M1254 87a4 4 0 0 1 4-4h28a4 4 0 0 1 4 4v28a4 4 0 0 1-4 4h-28a4 4 0 0 1-4-4z"/><path id="b" d="M1271.24 104.71c.19.19.44.29.71.29h.05c.34 0 .62-.18.8-.43l2.9-2.88a1 1 0 0 0 0-1.42 1 1 0 0 0-1.42 0l-1.28 1.27V95a1 1 0 0 0-1-1 1 1 0 0 0-1 1v6.62l-1.31-1.34a1 1 0 0 0-1.41 0 .99.99 0 0 0 0 1.42zm6.76-.71v2a1 1 0 0 1-1 1h-10a1 1 0 0 1-1-1v-2a1 1 0 0 0-1-1 1 1 0 0 0-1 1v3a2 2 0 0 0 2 2h12a2 2 0 0 0 2-2v-3a1 1 0 0 0-1-1 1 1 0 0 0-1 1z"/></defs><use fill="#4a90e2" xlink:href="#a" transform="translate(-1254 -83)"/><use fill="#fff" xlink:href="#b" transform="translate(-1254 -83)"/></svg>