<svg width="109" height="19" viewBox="0 0 109 19" xmlns="http://www.w3.org/2000/svg"><title>Group 3</title><g fill="none" fill-rule="evenodd"><path fill="#4A90E2" d="M102.5.86h6V18h-6z"/><path fill="#3E79BE" d="M96.5 6h6v12h-6z"/><path fill="#306099" d="M90.5 13h6v5h-6z"/><path d="M5.448 4.032V18h3.768V4.032h5.136V.864H.312v3.168h5.136zm13.896 5.472c0 .72.084 1.42.252 2.1.168.68.436 1.292.804 1.836.368.544.848.98 1.44 1.308.592.328 1.312.492 2.16.492.848 0 1.568-.164 2.16-.492a4.12 4.12 0 0 0 1.44-1.308 5.675 5.675 0 0 0 .804-1.836c.168-.68.252-1.38.252-2.1 0-.752-.084-1.48-.252-2.184a5.784 5.784 0 0 0-.804-1.884 4.078 4.078 0 0 0-1.44-1.32c-.592-.328-1.312-.492-2.16-.492-.848 0-1.568.164-2.16.492a4.078 4.078 0 0 0-1.44 1.32 5.784 5.784 0 0 0-.804 1.884 9.377 9.377 0 0 0-.252 2.184zm-3.768 0c0-1.28.192-2.468.576-3.564a8.561 8.561 0 0 1 1.656-2.868 7.572 7.572 0 0 1 2.652-1.92C21.508.688 22.688.456 24 .456c1.328 0 2.512.232 3.552.696a7.599 7.599 0 0 1 2.64 1.92 8.561 8.561 0 0 1 1.656 2.868c.384 1.096.576 2.284.576 3.564 0 1.248-.192 2.412-.576 3.492a8.34 8.34 0 0 1-1.656 2.82c-.72.8-1.6 1.428-2.64 1.884-1.04.456-2.224.684-3.552.684-1.312 0-2.492-.228-3.54-.684a7.585 7.585 0 0 1-2.652-1.884 8.34 8.34 0 0 1-1.656-2.82c-.384-1.08-.576-2.244-.576-3.492zm23.184-.576h2.928c.432 0 .848-.032 1.248-.096s.752-.188 1.056-.372c.304-.184.548-.444.732-.78.184-.336.276-.776.276-1.32s-.092-.984-.276-1.32a2.027 2.027 0 0 0-.732-.78 2.904 2.904 0 0 0-1.056-.372 7.891 7.891 0 0 0-1.248-.096H38.76v5.136zM34.992.864h7.728c1.072 0 1.984.156 2.736.468.752.312 1.364.724 1.836 1.236a4.748 4.748 0 0 1 1.032 1.752 6.48 6.48 0 0 1 .324 2.04c0 .688-.108 1.364-.324 2.028a4.732 4.732 0 0 1-1.032 1.764c-.472.512-1.084.924-1.836 1.236-.752.312-1.664.468-2.736.468h-3.96V18h-3.768V.864zM58.752 18V1.2H56.04c-.096.64-.296 1.176-.6 1.608-.304.432-.676.78-1.116 1.044-.44.264-.936.448-1.488.552a8.068 8.068 0 0 1-1.716.132v2.568h4.224V18h3.408zM64.344.864V18h3.528V5.976h.048L72.12 18h2.904l4.2-12.144h.048V18H82.8V.864h-5.304l-3.792 11.784h-.048L69.648.864h-5.304z" fill="#354052"/></g></svg>