<svg xmlns="http://www.w3.org/2000/svg" xmlns:xlink="http://www.w3.org/1999/xlink" width="219" height="365"><defs><path id="a" d="M1229 682.33c0 23.13-8.36 41.71-25.08 55.75-16.73 14.03-40.14 22.43-70.24 25.2V808h-29.89v-43.85c-35.48-.73-66.6-6.98-93.35-18.77v-57.6c12.65 6.26 27.88 11.79 45.7 16.59 17.8 4.8 33.7 7.63 47.65 8.5v-67.63l-14.61-5.67c-28.8-11.34-49.19-23.67-61.18-36.98-12-13.3-18-29.78-18-49.41 0-21.1 8.25-38.44 24.76-52.04 16.5-13.6 39.51-21.85 69.03-24.76V443h29.89v32.5c33.3 1.46 63.4 8.15 90.3 20.08l-20.5 51.05a235.75 235.75 0 0 0-69.8-17.02v64.36c28.35 10.91 48.53 20.37 60.53 28.37s20.8 16.8 26.4 26.4c5.6 9.6 8.39 20.8 8.39 33.6zm-65.66 3.28c0-6.11-2.47-11.28-7.41-15.5-4.95-4.21-12.36-8.58-22.25-13.08v54.32c19.78-3.35 29.66-11.93 29.66-25.74zm-87.68-132.43c0 6.4 2.21 11.67 6.65 15.81 4.43 4.15 11.6 8.4 21.48 12.77v-51.27c-18.75 2.76-28.13 10.32-28.13 22.69z"/></defs><use fill="#f4f4f4" xlink:href="#a" opacity=".7" transform="translate(-1010 -443)"/></svg>