<svg xmlns="http://www.w3.org/2000/svg" xmlns:xlink="http://www.w3.org/1999/xlink" width="28" height="35"><defs><path id="a" d="M193.62 381.94L189 392.09l4.8-.56 2.67 4.47 4.47-10.1"/><path id="b" d="M210.17 381.94l4.62 10.15-4.8-.56-2.67 4.47-4.47-10.1"/><path id="c" d="M190.91 374.15c0-6.16 4.92-11.15 10.98-11.15 6.07 0 10.99 5 10.99 11.15 0 6.16-4.92 11.15-10.98 11.15-6.07 0-10.99-5-10.99-11.15z"/><path id="d" d="M196.64 372.66l3.63-.5 1.65-3.34 1.6 3.36 3.63.56-2.65 2.58.6 3.68-3.24-1.76-3.26 1.71.65-3.67z"/></defs><use fill="#fff" fill-opacity="0" stroke="#fff" stroke-linecap="round" stroke-linejoin="round" stroke-miterlimit="50" stroke-width="2" xlink:href="#a" transform="translate(-188 -362)"/><use fill="#fff" fill-opacity="0" stroke="#fff" stroke-linecap="round" stroke-linejoin="round" stroke-miterlimit="50" stroke-width="2" xlink:href="#b" transform="translate(-188 -362)"/><use fill="#fff" fill-opacity="0" stroke="#fff" stroke-linecap="round" stroke-linejoin="round" stroke-miterlimit="50" stroke-width="2" xlink:href="#c" transform="translate(-188 -362)"/><use fill="#fff" fill-opacity="0" stroke="#fff" stroke-linecap="round" stroke-linejoin="round" stroke-miterlimit="50" stroke-width="2" xlink:href="#d" transform="translate(-188 -362)"/></svg>