<svg xmlns="http://www.w3.org/2000/svg" xmlns:xlink="http://www.w3.org/1999/xlink" width="93" height="17"><defs><path id="a" d="M530.41 520l2.6 5.27 5.81.84-4.2 4.1 1 5.79-5.2-2.73-5.2 2.73.99-5.79-4.21-4.1 5.81-.84z"/><path id="b" d="M568.41 520l2.6 5.27 5.81.84-4.2 4.1 1 5.79-5.2-2.73-5.2 2.73.99-5.79-4.21-4.1 5.81-.84z"/><path id="c" d="M549.41 520l2.6 5.27 5.81.84-4.2 4.1 1 5.79-5.2-2.73-5.2 2.73.99-5.79-4.21-4.1 5.81-.84z"/><path id="d" d="M587.41 520l2.6 5.27 5.81.84-4.2 4.1 1 5.79-5.2-2.73-5.2 2.73.99-5.79-4.21-4.1 5.81-.84z"/><path id="e" d="M606.41 520l2.6 5.27 5.81.84-4.2 4.1 1 5.79-5.2-2.73-5.2 2.73.99-5.79-4.21-4.1 5.81-.84z"/></defs><g transform="translate(-522 -520)"><use fill="#f8e26e" xlink:href="#a"/><use fill="#fff" fill-opacity="0" stroke="#c3c3c3" stroke-linecap="round" stroke-linejoin="round" stroke-miterlimit="50" stroke-width=".5" xlink:href="#a"/></g><g transform="translate(-522 -520)"><use fill="#f8e26e" xlink:href="#b"/><use fill="#fff" fill-opacity="0" stroke="#c3c3c3" stroke-linecap="round" stroke-linejoin="round" stroke-miterlimit="50" stroke-width=".5" xlink:href="#b"/></g><g transform="translate(-522 -520)"><use fill="#f8e26e" xlink:href="#c"/><use fill="#fff" fill-opacity="0" stroke="#c3c3c3" stroke-linecap="round" stroke-linejoin="round" stroke-miterlimit="50" stroke-width=".5" xlink:href="#c"/></g><g transform="translate(-522 -520)"><use fill="#f8e26e" xlink:href="#d"/><use fill="#fff" fill-opacity="0" stroke="#c3c3c3" stroke-linecap="round" stroke-linejoin="round" stroke-miterlimit="50" stroke-width=".5" xlink:href="#d"/></g><g transform="translate(-522 -520)"><use fill="#f8e26e" xlink:href="#e"/><use fill="#fff" fill-opacity="0" stroke="#c3c3c3" stroke-linecap="round" stroke-linejoin="round" stroke-miterlimit="50" stroke-width=".5" xlink:href="#e"/></g></svg>